<svg width="146" height="145" viewBox="0 0 146 145" fill="none" xmlns="http://www.w3.org/2000/svg">
<g filter="url(#filter0_d_1_76)">
<circle cx="73" cy="68.5" r="64.5" fill="white"/>
<g clip-path="url(#clip0_1_76)">
<g clip-path="url(#clip1_1_76)">
<path d="M101.422 70.9772C98.5015 60.1533 95.9806 50.807 103.788 27.8879C104.176 26.7503 103.576 25.5095 102.45 25.1172C101.323 24.725 100.096 25.3308 99.708 26.4684C95.9591 37.4739 94.2291 46.2435 94.2622 54.0672C94.2881 60.1243 95.3537 64.9187 96.6206 69.7321C93.5705 71.0223 90.2875 72.048 86.8348 72.7977C86.9369 72.7003 87.039 72.603 87.1411 72.5057C88.8351 70.8944 90.5866 69.228 91.4034 67.162C91.8449 66.0447 91.3071 64.7764 90.2012 64.3289C89.094 63.8828 87.84 64.4262 87.3971 65.5435C86.9341 66.7145 85.5363 68.0439 84.1831 69.3311C82.712 70.7302 81.2064 72.1671 80.335 73.8554C77.7796 74.1401 75.1595 74.2854 72.4963 74.2854C69.8331 74.2854 67.2145 74.1401 64.662 73.8554C63.792 72.1657 62.2849 70.7288 60.8138 69.3297C59.4621 68.0439 58.0629 66.713 57.5999 65.542C57.1584 64.4248 55.903 63.8799 54.7957 64.3274C53.6899 64.7735 53.1506 66.0418 53.5935 67.1605C54.4103 69.2265 56.1618 70.893 57.8558 72.5042C57.9579 72.6015 58.06 72.6989 58.1621 72.7962C54.708 72.048 51.4264 71.0208 48.3764 69.7307C49.6433 64.9173 50.7089 60.1228 50.7347 54.0658C50.7678 46.242 49.0379 37.4725 45.289 26.467C44.905 25.3323 43.6769 24.7279 42.551 25.1187C41.4236 25.511 40.8253 26.7503 41.2122 27.8893C49.0192 50.807 46.4983 60.1548 43.5777 70.9772C41.7428 77.7796 39.7224 85.2706 40.0316 96.7875C40.0287 96.8675 40.0316 96.9459 40.0373 97.0244C40.1437 100.632 40.4773 104.633 41.1173 109.13C41.2711 110.216 42.1943 111 43.2498 111C43.3519 111 43.4555 110.992 43.559 110.978C44.7382 110.806 45.5564 109.702 45.3882 108.511C44.941 105.365 44.6476 102.487 44.4794 99.8299C48.8207 101.076 57.3223 103.189 66.2596 103.604C65.7017 105.192 65.2113 106.757 64.9855 108.543C64.8345 109.737 65.67 110.828 66.8521 110.981C66.9456 110.992 67.0376 110.998 67.1282 110.998C68.1981 110.998 69.1256 110.195 69.2651 109.095C69.4779 107.417 70.0301 105.877 70.6715 104.093C70.8958 103.469 71.1259 102.824 71.3517 102.149V102.143C71.7845 100.851 72.1972 99.4434 72.5021 97.8365C72.8069 99.4434 73.2182 100.851 73.6496 102.143V102.146C73.8768 102.821 74.1083 103.468 74.3327 104.091C74.974 105.875 75.5262 107.415 75.7391 109.093C75.8785 110.193 76.8061 110.997 77.876 110.997C77.9666 110.997 78.06 110.991 78.1521 110.979C79.3341 110.827 80.1696 109.736 80.0186 108.541C79.7928 106.756 79.3025 105.191 78.7445 103.603C87.6804 103.187 96.182 101.075 100.523 99.8284C100.355 102.486 100.062 105.364 99.6145 108.509C99.4448 109.701 100.265 110.805 101.444 110.976C101.547 110.991 101.651 110.998 101.753 110.998C102.808 110.998 103.732 110.215 103.885 109.128C104.524 104.635 104.859 100.635 104.965 97.0287C104.973 96.9474 104.974 96.8645 104.973 96.7817C105.28 85.2692 103.261 77.7781 101.426 70.9772H101.422ZM77.2821 99.2952C76.9686 98.2012 76.7025 97.0258 76.5271 95.7081C78.9041 94.6707 80.8297 92.7137 81.8305 90.161C82.2691 89.0423 81.727 87.7754 80.6197 87.3322C79.5124 86.8891 78.2585 87.4368 77.8199 88.5556C76.9585 90.7538 74.8892 92.1747 72.5466 92.1747C70.2041 92.1747 68.1362 90.7538 67.2734 88.5556C66.8348 87.4368 65.5809 86.8891 64.4736 87.3322C63.3663 87.7754 62.8242 89.0423 63.2628 90.161C64.2507 92.6817 66.1403 94.6213 68.477 95.6674C68.3016 97.0011 68.0327 98.1896 67.7163 99.2952C57.7882 99.0264 47.9105 96.3212 44.3054 95.2315C44.2104 86.1859 45.6686 79.8906 47.2418 73.976C51.9844 75.9214 57.2159 77.2798 62.7422 78.012C62.8213 78.0266 62.9018 78.0382 62.9838 78.044C66.0756 78.4421 69.2579 78.647 72.4963 78.647C75.7347 78.647 78.9185 78.4436 82.0103 78.044C82.0937 78.0382 82.1771 78.0266 82.259 78.0106C87.7839 77.2783 93.0154 75.9199 97.7566 73.9745C99.3298 79.8892 100.787 86.1845 100.693 95.2315C97.0908 96.3212 87.2245 99.0264 77.2821 99.2938V99.2952Z" fill="#FF3103"/>
<path d="M70.3438 65.9579V68.1546C70.3438 69.3576 71.3101 70.3339 72.5008 70.3339C73.6915 70.3339 74.6578 69.3576 74.6578 68.1546V65.9579C74.6578 64.7549 73.6915 63.7786 72.5008 63.7786C71.3101 63.7786 70.3438 64.7549 70.3438 65.9579Z" fill="#FF3103"/>
<path d="M68.135 25.6888L66.5158 27.4337C65.8514 28.1485 64.9153 28.5597 63.9446 28.5597H51.2339C50.0433 28.5597 49.0769 29.536 49.0769 30.739C49.0769 31.9419 50.0433 32.9183 51.2339 32.9183H63.9432C66.1016 32.9183 68.1853 32.0059 69.6622 30.415L71.2814 28.6701C72.0968 27.7925 72.0522 26.4123 71.1836 25.59C70.315 24.7662 68.9489 24.8112 68.135 25.6888Z" fill="#FF3103"/>
<path d="M95.9232 30.739C95.9232 29.536 94.9569 28.5597 93.7662 28.5597H81.057C80.0863 28.5597 79.1487 28.1499 78.4858 27.4337L76.8666 25.6888C76.0512 24.8112 74.6865 24.7662 73.818 25.59C72.9494 26.4138 72.9048 27.7925 73.7202 28.6701L75.3394 30.415C76.8162 32.0059 78.8999 32.9183 81.0584 32.9183H93.7676C94.9583 32.9183 95.9247 31.9419 95.9247 30.739H95.9232Z" fill="#FF3103"/>
<path d="M58.9905 52.4986H64.2364C66.2799 52.4986 68.2269 51.916 69.721 50.8583L70.7665 50.1188C71.7415 49.4287 71.9787 48.0688 71.2942 47.0837C70.6112 46.0987 69.2652 45.859 68.2902 46.5505L67.2448 47.29C66.4812 47.8305 65.384 48.1414 64.2364 48.1414H58.9905C57.7998 48.1414 56.8335 49.1178 56.8335 50.3207C56.8335 51.5237 57.7998 52.5 58.9905 52.5V52.4986Z" fill="#FF3103"/>
<path d="M86.0094 48.1398H80.7635C79.6145 48.1398 78.5187 47.8304 77.7552 47.2884L76.7097 46.5489C75.7347 45.8588 74.3887 46.0971 73.7057 47.0821C73.0226 48.0672 73.2585 49.4271 74.2349 50.1172L75.2803 50.8567C76.7744 51.9144 78.7215 52.497 80.7649 52.497H86.0108C87.2015 52.497 88.1679 51.5207 88.1679 50.3177C88.1679 49.1147 87.2015 48.1384 86.0108 48.1384L86.0094 48.1398Z" fill="#FF3103"/>
<path d="M58.9905 61.3101H64.2364C66.2799 61.3101 68.2269 60.7275 69.721 59.6698L70.7665 58.9303C71.7415 58.2402 71.9787 56.8803 71.2942 55.8953C70.6112 54.9102 69.2652 54.6705 68.2902 55.3621L67.2448 56.1016C66.4812 56.642 65.384 56.9529 64.2364 56.9529H58.9905C57.7998 56.9529 56.8335 57.9293 56.8335 59.1323C56.8335 60.3352 57.7998 61.3116 58.9905 61.3116V61.3101Z" fill="#FF3103"/>
<path d="M86.0094 56.9516H80.7635C79.6145 56.9516 78.5187 56.6421 77.7552 56.1002L76.7097 55.3607C75.7347 54.6706 74.3887 54.9088 73.7057 55.8939C73.0226 56.8789 73.2585 58.2388 74.2349 58.9289L75.2803 59.6685C76.7744 60.7262 78.7215 61.3088 80.7649 61.3088H86.0108C87.2015 61.3088 88.1679 60.3324 88.1679 59.1294C88.1679 57.9265 87.2015 56.9501 86.0108 56.9501L86.0094 56.9516Z" fill="#FF3103"/>
</g>
</g>
</g>
<defs>
<filter id="filter0_d_1_76" x="0.5" y="0" width="145" height="145" filterUnits="userSpaceOnUse" color-interpolation-filters="sRGB">
<feFlood flood-opacity="0" result="BackgroundImageFix"/>
<feColorMatrix in="SourceAlpha" type="matrix" values="0 0 0 0 0 0 0 0 0 0 0 0 0 0 0 0 0 0 127 0" result="hardAlpha"/>
<feOffset dy="4"/>
<feGaussianBlur stdDeviation="4"/>
<feComposite in2="hardAlpha" operator="out"/>
<feColorMatrix type="matrix" values="0 0 0 0 0 0 0 0 0 0 0 0 0 0 0 0 0 0 0.25 0"/>
<feBlend mode="normal" in2="BackgroundImageFix" result="effect1_dropShadow_1_76"/>
<feBlend mode="normal" in="SourceGraphic" in2="effect1_dropShadow_1_76" result="shape"/>
</filter>
<clipPath id="clip0_1_76">
<rect width="85" height="85" fill="white" transform="translate(30 26)"/>
</clipPath>
<clipPath id="clip1_1_76">
<rect width="65" height="86" fill="white" transform="translate(40 25)"/>
</clipPath>
</defs>
</svg>
