<svg width="145" height="145" viewBox="0 0 145 145" fill="none" xmlns="http://www.w3.org/2000/svg">
<g filter="url(#filter0_d_1_101)">
<circle cx="72.5" cy="68.5" r="64.5" fill="white"/>
<g clip-path="url(#clip0_1_101)">
<path d="M53.8585 82.7001C58.44 84.9152 60.5428 88.0952 62.9782 91.778C65.7825 96.0204 68.9611 100.829 76.4185 104.659C81.5378 107.289 86.7978 107.999 90.9859 107.999C92.0833 107.999 93.1077 107.95 94.0349 107.874C99.6029 107.42 104.97 105.725 108.758 103.224C112.334 100.863 114.191 97.9638 113.985 95.0595C113.857 93.2309 112.911 91.5983 111.335 90.0738C111.277 90.0116 111.215 89.9535 111.148 89.8981C108.073 87.0276 102.76 84.5354 96.4634 81.8405L87.8505 59.2329L90.194 55.0297C90.6575 54.1986 90.4805 53.1579 89.7683 52.5268C89.4345 52.2308 86.4031 49.6616 82.8015 50.6022C80.5945 51.1793 78.8228 52.9025 77.5213 55.7325C73.7737 54.7486 69.6936 53.0457 67.5259 50.1171C66.0055 48.0614 65.6365 45.6261 66.4014 42.669C66.5663 42.0311 66.4109 41.3527 65.9838 40.8499C65.5568 40.3472 64.9121 40.0836 64.2567 40.1417C53.0544 41.1445 45.2429 51.1091 43.2603 53.9026C41.3655 54.3932 36.9949 55.9352 34.9474 60.0316C33.85 62.2264 33.7014 64.5361 34.5068 66.8985C36.2773 72.0936 42.6062 77.2604 53.8544 82.6987L53.8585 82.7001ZM83.8151 54.5297C84.4597 54.3553 85.1395 54.5094 85.7112 54.7473L84.4827 56.9515C83.7691 56.884 82.7839 56.7704 81.6352 56.588C82.2879 55.4446 83.0258 54.7419 83.8151 54.5283V54.5297ZM61.9889 44.6314C61.7997 47.579 62.5646 50.2292 64.2742 52.5362C69.1219 59.0761 80.2918 60.6465 84.1867 61.0006L84.9868 63.0995C83.7056 63.4563 81.6973 63.7509 79.1363 63.2711C78.0349 63.0657 76.9767 63.7901 76.7699 64.8902C76.5631 65.9903 77.2888 67.0499 78.3889 67.2566C79.589 67.481 80.7067 67.5729 81.7298 67.5729C83.6664 67.5729 85.2611 67.2472 86.4288 66.8904L87.3829 69.3933C86.099 69.7488 84.0813 70.0461 81.5338 69.569C80.4324 69.3636 79.3742 70.088 79.1674 71.1881C78.9606 72.2882 79.6863 73.3478 80.7864 73.5546C81.9865 73.7789 83.1042 73.8708 84.1273 73.8708C86.0639 73.8708 87.6586 73.5451 88.8263 73.1883L89.7818 75.6953C88.5006 76.0521 86.4923 76.3467 83.9313 75.867C82.8298 75.6615 81.7717 76.3859 81.5649 77.4861C81.3581 78.5862 82.0838 79.6457 83.1839 79.8525C84.384 80.0769 85.5017 80.1688 86.5248 80.1688C88.4614 80.1688 90.0561 79.843 91.2238 79.4863L91.9833 81.4811C90.1629 81.8811 88.2763 82.8393 86.3437 84.3489C85.2382 85.2125 84.3205 86.1045 83.6826 86.7775C82.5352 85.9234 80.0148 83.0907 77.3537 73.8762C74.667 64.5753 68.257 62.6197 63.5755 61.1912C59.0157 59.8005 56.7263 59.1018 57.4318 53.3944C57.5696 52.2835 56.7804 51.2712 55.6694 51.1334C54.5599 50.9955 53.5463 51.7848 53.4084 52.8957C52.9111 56.9123 53.6598 59.8343 55.6978 61.8277C57.475 63.5684 59.8644 64.2969 62.393 65.0672C66.8123 66.4147 71.3816 67.8094 73.4588 74.9993C75.3765 81.6378 77.5848 86.3153 80.0202 88.9034C81.9041 90.905 83.4988 91.1807 84.2313 91.1807C84.3543 91.1807 84.4516 91.1726 84.5246 91.1645C85.0503 91.1009 85.5314 90.832 85.8639 90.4198C87.1126 88.8683 91.0197 85.0071 94.3416 85.345C98.4636 87.1005 102.398 88.8318 105.375 90.6522C105.959 91.009 106.471 91.3496 106.92 91.6713C103.336 94.7892 96.3688 95.9352 90.9968 95.9352C87.6181 95.9352 84.4813 95.2419 81.9257 93.9283C77.278 91.5415 75.4995 88.8507 73.0371 85.126C70.3801 81.1067 66.7407 75.6007 59.117 71.8449C49.477 67.0958 46.5944 62.963 45.874 60.3343C45.2915 58.2098 46.1159 56.911 46.1511 56.8569C46.1362 56.8813 46.1267 56.8921 46.1267 56.8921H46.124C46.1443 56.8623 46.1659 56.8353 46.1862 56.8056C46.2551 56.6988 52.5989 46.9938 61.9848 44.6314H61.9889ZM38.5775 61.8466C39.2694 60.4627 40.4601 59.5153 41.6156 58.8801C41.6183 59.5775 41.7021 60.3438 41.9088 61.1749C43.1765 66.2511 48.3648 71.0651 57.3304 75.4818C63.9674 78.7524 67.1245 83.5259 69.6598 87.3614C72.2506 91.2793 74.4873 94.6635 80.0783 97.534C83.2042 99.1396 86.9816 99.9883 91.0022 99.9883C94.216 99.9883 104.222 99.564 109.74 94.5959C109.867 94.8811 109.927 95.1311 109.942 95.3446C110.036 96.6853 108.759 98.3652 106.525 99.8397C102.733 102.343 97.0229 103.95 91.0846 103.95C86.7126 103.95 82.2149 103.078 78.2714 101.052C71.7586 97.707 69.0138 93.5566 66.3609 89.5413C63.8282 85.7099 61.2091 81.7473 55.6235 79.0484C43.0684 72.9802 39.2991 68.3811 38.3491 65.5916C37.9004 64.2766 37.9761 63.0508 38.5788 61.8453L38.5775 61.8466Z" fill="#FF3103"/>
<path d="M75.2561 28.4352C74.3763 27.7419 73.1019 27.8933 72.4086 28.7731L66.9406 35.713C66.2473 36.5928 66.3986 37.8672 67.2784 38.5605C67.6501 38.8538 68.092 38.9957 68.5312 38.9957C69.1313 38.9957 69.7246 38.7308 70.1246 38.2227L75.5926 31.2828C76.2859 30.403 76.1346 29.1285 75.2548 28.4352H75.2561Z" fill="#FF3103"/>
<path d="M104.173 28.773L90.0182 46.7396C89.3249 47.6195 89.4763 48.8939 90.3561 49.5872C90.7277 49.8805 91.1696 50.0224 91.6089 50.0224C92.2089 50.0224 92.8022 49.7575 93.2023 49.2494L107.359 31.2813C108.052 30.4015 107.901 29.127 107.021 28.4337C106.141 27.7404 104.867 27.8918 104.173 28.7716V28.773Z" fill="#FF3103"/>
</g>
</g>
<defs>
<filter id="filter0_d_1_101" x="0" y="0" width="145.5" height="145" filterUnits="userSpaceOnUse" color-interpolation-filters="sRGB">
<feFlood flood-opacity="0" result="BackgroundImageFix"/>
<feColorMatrix in="SourceAlpha" type="matrix" values="0 0 0 0 0 0 0 0 0 0 0 0 0 0 0 0 0 0 127 0" result="hardAlpha"/>
<feOffset dy="4"/>
<feGaussianBlur stdDeviation="4"/>
<feComposite in2="hardAlpha" operator="out"/>
<feColorMatrix type="matrix" values="0 0 0 0 0 0 0 0 0 0 0 0 0 0 0 0 0 0 0.25 0"/>
<feBlend mode="normal" in2="BackgroundImageFix" result="effect1_dropShadow_1_101"/>
<feBlend mode="normal" in="SourceGraphic" in2="effect1_dropShadow_1_101" result="shape"/>
</filter>
<clipPath id="clip0_1_101">
<rect width="80" height="80" fill="white" transform="translate(34 28)"/>
</clipPath>
</defs>
</svg>
