<svg width="146" height="145" viewBox="0 0 146 145" fill="none" xmlns="http://www.w3.org/2000/svg">
<g filter="url(#filter0_d_1_91)">
<circle cx="73" cy="68.5" r="64.5" fill="white"/>
<g clip-path="url(#clip0_1_91)">
<path d="M42.9505 111C45.8026 111 48.5623 109.963 50.7267 108.081L54.7406 104.894C57.4352 102.754 60.9448 101.768 64.3706 102.186C66.5437 102.451 69.1589 102.651 72.1107 102.651C82.9704 102.651 98.3943 99.9542 113.145 87.9291C117.87 84.0777 115.869 77.5942 113.289 71.7582C109.658 63.5457 102.063 51.0726 91.7754 34.873C90.3666 32.653 88.3554 30.9527 85.9598 29.9533C79.7093 27.3484 74.7982 26.1292 70.0388 26.0028C67.7631 25.9411 65.5828 26.9908 63.7334 29.0357C62.0285 30.9211 59.7875 36.3851 59.0333 40.4993C58.5073 43.3641 59.6401 45.0916 60.6833 46.0351C63.56 48.6386 69.3857 48.6802 78.9609 46.1528C82.3476 50.7208 82.8302 55.2787 83.3374 60.0835C83.5642 62.2275 83.7939 64.4088 84.2939 66.6001C78.6112 64.1316 73.6625 64.6457 70.1977 65.727C67.6707 66.5154 65.6479 67.6857 64.2666 68.6479C61.9851 65.5016 58.8657 63.247 55.1278 62.0667C51.1934 60.8245 46.8415 60.8633 42.8768 62.1772C40.9277 62.8234 39.3383 62.7215 38.0177 61.867C36.6205 60.9624 34.8419 60.892 33.3753 61.6818C31.9088 62.4716 30.9985 63.9923 30.9985 65.6495V98.8729C30.9985 105.559 36.359 110.999 42.949 110.999L42.9505 111ZM35.3346 65.6509C35.3346 65.6107 35.3346 65.5289 35.4429 65.47C35.482 65.4484 35.5166 65.4413 35.5455 65.4413C35.5961 65.4413 35.6322 65.4642 35.6539 65.4786C37.3487 66.5757 40.2153 67.6024 44.2494 66.2641C49.9653 64.3686 57.9005 65.6265 61.8161 72.8625C62.1412 73.4628 62.7292 73.8778 63.4069 73.9769C64.086 74.076 64.7679 73.8534 65.252 73.3709C65.6406 72.9903 74.9239 64.1417 87.0969 73.2201C87.9132 73.829 89.0446 73.7888 89.8161 73.1268C90.5877 72.4633 90.7885 71.3562 90.3016 70.4658C88.4348 67.0639 88.0534 63.4538 87.6488 59.6312C87.0853 54.295 86.4453 48.248 81.4345 42.3115C80.8869 41.6625 80.0084 41.3939 79.1877 41.6222C67.1765 44.9768 64.2218 43.4086 63.6019 42.8472C63.4502 42.7093 63.0933 42.3862 63.2985 41.2704C63.9733 37.5943 65.9961 32.9775 66.9584 31.9134C67.9452 30.8221 68.945 30.2778 69.9232 30.3065C74.1206 30.4185 78.5505 31.5343 84.2837 33.9253C85.8543 34.5801 87.1778 35.703 88.1097 37.1706C98.2932 53.2079 105.798 65.5217 109.32 73.4901C112.752 81.2517 111.79 83.4602 110.395 84.5976C92.8821 98.8743 74.372 99.0667 64.898 97.9093C60.3235 97.3507 55.6349 98.669 52.0343 101.527L47.98 104.745C47.9526 104.768 47.9251 104.791 47.8977 104.814C46.5193 106.024 44.7609 106.69 42.9476 106.69C38.7488 106.69 35.3317 103.184 35.3317 98.8729V65.6495L35.3346 65.6509Z" fill="#FF3103"/>
<path d="M60.6818 90.6761C64.7087 93.0269 69.4955 94.2762 74.3632 94.2762C75.0987 94.2762 75.8356 94.2475 76.5724 94.19C82.4068 93.7334 87.8279 91.4501 91.8403 87.7596C92.7188 86.9511 92.7723 85.5884 91.9588 84.7153C91.1454 83.8422 89.7742 83.789 88.8957 84.5975C82.2421 90.7178 71.0559 91.7345 62.8766 86.9597C61.8449 86.3566 60.5157 86.6998 59.9103 87.7266C59.3034 88.7519 59.6502 90.073 60.6818 90.6747V90.6761Z" fill="#FF3103"/>
<path d="M41.6992 100.414C42.0864 100.414 42.4794 100.31 42.8334 100.094C46.7548 97.694 48.2719 93.6445 49.6098 90.0702C50.7946 86.9082 51.9129 83.9213 54.4732 82.1579C55.4572 81.4801 55.7014 80.1388 55.0208 79.1609C54.3389 78.183 52.9894 77.9403 52.0054 78.6167C48.3268 81.1498 46.8501 85.0902 45.5483 88.5667C44.2956 91.9126 43.2119 94.8019 40.5606 96.4246C39.542 97.0478 39.2241 98.3747 39.8512 99.3885C40.2601 100.049 40.971 100.414 41.6992 100.414Z" fill="#FF3103"/>
</g>
</g>
<defs>
<filter id="filter0_d_1_91" x="0.5" y="0" width="145" height="145" filterUnits="userSpaceOnUse" color-interpolation-filters="sRGB">
<feFlood flood-opacity="0" result="BackgroundImageFix"/>
<feColorMatrix in="SourceAlpha" type="matrix" values="0 0 0 0 0 0 0 0 0 0 0 0 0 0 0 0 0 0 127 0" result="hardAlpha"/>
<feOffset dy="4"/>
<feGaussianBlur stdDeviation="4"/>
<feComposite in2="hardAlpha" operator="out"/>
<feColorMatrix type="matrix" values="0 0 0 0 0 0 0 0 0 0 0 0 0 0 0 0 0 0 0.25 0"/>
<feBlend mode="normal" in2="BackgroundImageFix" result="effect1_dropShadow_1_91"/>
<feBlend mode="normal" in="SourceGraphic" in2="effect1_dropShadow_1_91" result="shape"/>
</filter>
<clipPath id="clip0_1_91">
<rect width="85" height="85" fill="white" transform="translate(31 26)"/>
</clipPath>
</defs>
</svg>
